<?xml version="1.0" standalone="no"?>
<!DOCTYPE svg PUBLIC "-//W3C//DTD SVG 20010904//EN"
 "http://www.w3.org/TR/2001/REC-SVG-20010904/DTD/svg10.dtd">
<svg version="1.0" xmlns="http://www.w3.org/2000/svg"
 width="500.000000pt" height="500.000000pt" viewBox="0 0 500.000000 500.000000"
 preserveAspectRatio="xMidYMid meet">

<g transform="translate(0.000000,500.000000) scale(0.100000,-0.100000)"
fill="#000000" stroke="none">
<path d="M632 4816 c-206 -52 -384 -227 -448 -441 -26 -88 -25 -239 4 -330 76
-244 291 -405 543 -405 110 0 173 14 269 61 154 76 282 231 324 395 20 79 21
232 1 308 -47 180 -189 332 -371 398 -74 26 -243 34 -322 14z"/>
<path d="M1392 4148 c-18 -18 -15 -36 11 -52 12 -8 328 -116 701 -241 502
-168 684 -225 695 -218 23 15 25 49 4 58 -32 13 -1385 465 -1392 465 -4 0 -12
-5 -19 -12z"/>
<path d="M3292 4056 c-206 -52 -384 -227 -448 -441 -26 -88 -25 -239 4 -330
76 -244 291 -405 543 -405 110 0 173 14 269 61 154 76 282 231 324 395 20 79
21 232 1 308 -47 180 -189 332 -371 398 -74 26 -243 34 -322 14z"/>
<path d="M1216 3794 c-9 -8 -16 -21 -16 -27 0 -7 194 -203 432 -437 238 -233
522 -512 630 -620 l197 -195 -188 -207 c-104 -114 -191 -213 -194 -221 -3 -9
0 -23 8 -33 10 -14 17 -16 33 -9 11 6 95 93 187 195 92 102 175 194 185 204
19 19 20 19 62 -19 24 -21 270 -262 548 -534 638 -627 663 -651 681 -651 20 0
39 20 39 40 0 9 -64 79 -142 156 -79 77 -360 353 -626 614 -265 260 -481 477
-480 481 2 4 90 102 196 218 186 205 213 244 177 257 -26 10 -57 -19 -245
-225 -161 -177 -184 -199 -200 -188 -9 6 -244 235 -521 507 -700 687 -724 710
-736 710 -7 0 -19 -7 -27 -16z"/>
<path d="M3614 2846 c-4 -11 298 -1239 356 -1448 12 -40 37 -56 57 -35 12 12
-12 120 -167 738 -100 398 -186 732 -191 742 -12 21 -47 23 -55 3z"/>
<path d="M1522 2156 c-206 -52 -384 -227 -448 -441 -26 -88 -25 -239 4 -330
76 -244 291 -405 543 -405 110 0 173 14 269 61 154 76 282 231 324 395 20 79
21 232 1 308 -47 180 -189 332 -371 398 -74 26 -243 34 -322 14z"/>
<path d="M4122 1346 c-206 -52 -384 -227 -448 -441 -26 -88 -25 -239 4 -330
76 -244 291 -405 543 -405 110 0 173 14 269 61 154 76 282 231 324 395 20 79
21 232 1 308 -47 180 -189 332 -371 398 -74 26 -243 34 -322 14z"/>
</g>
</svg>
