<svg version="1.1" id="Layer_1" xmlns="http://www.w3.org/2000/svg" xmlns:xlink="http://www.w3.org/1999/xlink" x="0px" y="0px"
	 width="100%" viewBox="0 0 500 500" enable-background="new 0 0 500 500" xml:space="preserve">
<path fill="#FFC700" opacity="1.000000" stroke="none" 
	d="
M301.000000,501.000000 
	C200.666687,501.000000 100.833382,501.000000 1.000054,501.000000 
	C1.000036,334.333405 1.000036,167.666794 1.000018,1.000143 
	C167.666565,1.000095 334.333130,1.000095 500.999756,1.000048 
	C500.999847,167.666519 500.999847,334.333038 500.999939,500.999786 
	C434.500000,501.000000 368.000000,501.000000 301.000000,501.000000 
M258.211639,248.054062 
	C259.493011,246.529984 260.727448,244.963409 262.063141,243.488510 
	C272.997070,231.414902 284.031342,219.430084 294.789398,207.202072 
	C296.073120,205.742966 295.883484,202.987595 296.376801,200.833084 
	C294.262451,201.478622 291.734131,201.601715 290.120972,202.879837 
	C286.889252,205.440384 284.064575,208.545517 281.237244,211.579956 
	C271.500061,222.030319 261.834167,232.547134 251.612549,242.482544 
	C211.909088,203.556641 172.205933,164.630417 132.500977,125.706047 
	C130.958252,124.193657 129.609970,122.296951 127.775406,121.330254 
	C126.437431,120.625229 123.636314,120.475044 122.942612,121.300461 
	C121.951881,122.479301 122.001076,124.805580 122.181007,126.583633 
	C122.276138,127.523712 123.533165,128.396530 124.358246,129.205200 
	C165.135544,169.171631 205.922913,209.127762 246.341064,249.710434 
	C234.978775,262.301208 223.569992,274.850616 212.297180,287.520966 
	C210.274704,289.794128 206.076111,292.415344 209.723709,295.742950 
	C213.410721,299.106506 215.533188,294.595581 217.597137,292.385529 
	C229.283401,279.872070 240.844788,267.242004 253.036835,255.238770 
	C293.113800,294.539307 333.188873,333.841705 373.276947,373.130920 
	C374.458984,374.289368 375.629974,375.845612 377.073975,376.243011 
	C378.560760,376.652161 380.820648,376.378601 381.900177,375.437653 
	C382.698914,374.741516 382.502869,372.393036 382.087097,370.975037 
	C381.749695,369.824310 380.479401,368.908661 379.532898,367.980499 
	C338.979889,328.214264 298.416748,288.458282 258.211639,248.054062 
M447.722687,368.691315 
	C430.258392,362.482025 413.441772,363.735291 397.275482,372.975464 
	C371.320892,387.810425 359.759338,419.487427 370.079559,447.604523 
	C379.782990,474.041229 406.923218,488.561615 436.240723,483.001678 
	C460.124725,478.472168 481.137268,455.708527 483.978516,431.285675 
	C487.227783,403.355499 473.888275,379.941193 447.722687,368.691315 
M40.125309,31.603090 
	C28.020571,41.720425 20.266991,54.506279 18.004349,70.106987 
	C12.000416,111.503540 45.575832,143.603943 86.698784,136.074799 
	C128.501053,128.421280 149.427963,76.851479 124.995056,42.066463 
	C106.674255,15.983240 68.416794,8.968362 40.125309,31.603090 
M312.433411,206.127579 
	C336.719086,218.754318 364.678284,214.659302 383.561371,195.117172 
	C400.188629,177.909576 405.681610,157.182373 398.768585,134.331970 
	C392.219086,112.683205 377.011353,99.211273 354.619995,94.930885 
	C326.641479,89.582436 298.175293,105.907433 287.627869,132.778183 
	C276.665741,160.705444 286.240326,189.647827 312.433411,206.127579 
M216.888931,312.693817 
	C199.773300,284.465515 166.191223,275.653870 137.511337,291.865845 
	C99.854530,313.152283 95.359505,366.933838 129.140976,392.015350 
	C150.932159,408.194580 181.532806,406.915039 202.576965,388.944824 
	C224.809280,369.960022 230.825729,338.857971 216.888931,312.693817 
M274.068512,136.401489 
	C275.168610,136.778824 276.342651,137.603683 277.352844,137.436783 
	C279.235535,137.125778 281.022858,136.237839 282.849884,135.590027 
	C281.820953,133.971268 280.931122,132.234329 279.700989,130.786530 
	C279.135376,130.120819 277.914429,129.986496 276.970642,129.671204 
	C233.907639,115.285316 190.848236,100.888580 147.764099,86.566246 
	C144.951035,85.631104 141.040436,83.286697 139.508835,87.471909 
	C137.777039,92.204239 142.675217,92.527153 145.536819,93.486710 
	C188.110138,107.762367 230.719299,121.931175 274.068512,136.401489 
M381.232117,268.216827 
	C377.220734,252.229080 373.213135,236.240372 369.189880,220.255615 
	C368.906860,219.131119 368.812103,217.735062 368.087067,217.002335 
	C367.163666,216.069153 365.506165,214.992157 364.498962,215.255264 
	C363.478943,215.521683 362.469208,217.258728 362.190308,218.514908 
	C361.928986,219.691727 362.590729,221.092300 362.913910,222.377396 
	C374.359100,267.889679 385.788574,313.406006 397.322998,358.895721 
	C398.018372,361.638031 397.752808,366.492493 402.369873,365.221527 
	C406.869446,363.982971 404.335358,359.869659 403.643463,357.092529 
	C396.323975,327.712921 388.872986,298.366089 381.232117,268.216827 
z"/>
<path fill="#010133" opacity="1.000000" stroke="none" 
	d="
M448.090210,368.814514 
	C473.888275,379.941193 487.227783,403.355499 483.978516,431.285675 
	C481.137268,455.708527 460.124725,478.472168 436.240723,483.001678 
	C406.923218,488.561615 379.782990,474.041229 370.079559,447.604523 
	C359.759338,419.487427 371.320892,387.810425 397.275482,372.975464 
	C413.441772,363.735291 430.258392,362.482025 448.090210,368.814514 
z"/>
<path fill="#2154CA" opacity="1.000000" stroke="none" 
	d="
M40.401562,31.377949 
	C68.416794,8.968362 106.674255,15.983240 124.995056,42.066463 
	C149.427963,76.851479 128.501053,128.421280 86.698784,136.074799 
	C45.575832,143.603943 12.000416,111.503540 18.004349,70.106987 
	C20.266991,54.506279 28.020571,41.720425 40.401562,31.377949 
z"/>
<path fill="#1A3CB2" opacity="1.000000" stroke="none" 
	d="
M312.107605,205.959625 
	C286.240326,189.647827 276.665741,160.705444 287.627869,132.778183 
	C298.175293,105.907433 326.641479,89.582436 354.619995,94.930885 
	C377.011353,99.211273 392.219086,112.683205 398.768585,134.331970 
	C405.681610,157.182373 400.188629,177.909576 383.561371,195.117172 
	C364.678284,214.659302 336.719086,218.754318 312.107605,205.959625 
z"/>
<path fill="#18187B" opacity="1.000000" stroke="none" 
	d="
M217.042923,313.030365 
	C230.825729,338.857971 224.809280,369.960022 202.576965,388.944824 
	C181.532806,406.915039 150.932159,408.194580 129.140976,392.015350 
	C95.359505,366.933838 99.854530,313.152283 137.511337,291.865845 
	C166.191223,275.653870 199.773300,284.465515 217.042923,313.030365 
z"/>
<path fill="#FFFCF4" opacity="1.000000" stroke="none" 
	d="
M246.709167,249.085037 
	C205.922913,209.127762 165.135544,169.171631 124.358246,129.205200 
	C123.533165,128.396530 122.276138,127.523712 122.181007,126.583633 
	C122.001076,124.805580 121.951881,122.479301 122.942612,121.300461 
	C123.636314,120.475044 126.437431,120.625229 127.775406,121.330254 
	C129.609970,122.296951 130.958252,124.193657 132.500977,125.706047 
	C172.205933,164.630417 211.909088,203.556641 251.773987,243.025665 
	C250.193329,245.407532 248.451248,247.246277 246.709167,249.085037 
z"/>
<path fill="#FFFCF3" opacity="1.000000" stroke="none" 
	d="
M257.854889,248.701035 
	C298.416748,288.458282 338.979889,328.214264 379.532898,367.980499 
	C380.479401,368.908661 381.749695,369.824310 382.087097,370.975037 
	C382.502869,372.393036 382.698914,374.741516 381.900177,375.437653 
	C380.820648,376.378601 378.560760,376.652161 377.073975,376.243011 
	C375.629974,375.845612 374.458984,374.289368 373.276947,373.130920 
	C333.188873,333.841705 293.113800,294.539307 252.871857,254.696167 
	C254.422867,252.336044 256.138885,250.518539 257.854889,248.701035 
z"/>
<path fill="#70B3AC" opacity="1.000000" stroke="none" 
	d="
M273.694244,136.263367 
	C230.719299,121.931175 188.110138,107.762367 145.536819,93.486710 
	C142.675217,92.527153 137.777039,92.204239 139.508835,87.471909 
	C141.040436,83.286697 144.951035,85.631104 147.764099,86.566246 
	C190.848236,100.888580 233.907639,115.285316 276.970642,129.671204 
	C277.914429,129.986496 279.135376,130.120819 279.700989,130.786530 
	C280.931122,132.234329 281.820953,133.971268 282.849884,135.590027 
	C281.022858,136.237839 279.235535,137.125778 277.352844,137.436783 
	C276.342651,137.603683 275.168610,136.778824 273.694244,136.263367 
z"/>
<path fill="#D28A7F" opacity="1.000000" stroke="none" 
	d="
M381.345154,268.613525 
	C388.872986,298.366089 396.323975,327.712921 403.643463,357.092529 
	C404.335358,359.869659 406.869446,363.982971 402.369873,365.221527 
	C397.752808,366.492493 398.018372,361.638031 397.322998,358.895721 
	C385.788574,313.406006 374.359100,267.889679 362.913910,222.377396 
	C362.590729,221.092300 361.928986,219.691727 362.190308,218.514908 
	C362.469208,217.258728 363.478943,215.521683 364.498962,215.255264 
	C365.506165,214.992157 367.163666,216.069153 368.087067,217.002335 
	C368.812103,217.735062 368.906860,219.131119 369.189880,220.255615 
	C373.213135,236.240372 377.220734,252.229080 381.345154,268.613525 
z"/>
<path fill="#917B9E" opacity="1.000000" stroke="none" 
	d="
M258.033264,248.377548 
	C256.138885,250.518539 254.422867,252.336044 252.577789,254.402588 
	C240.844788,267.242004 229.283401,279.872070 217.597137,292.385529 
	C215.533188,294.595581 213.410721,299.106506 209.723709,295.742950 
	C206.076111,292.415344 210.274704,289.794128 212.297180,287.520966 
	C223.569992,274.850616 234.978775,262.301208 246.525116,249.397736 
	C248.451248,247.246277 250.193329,245.407532 252.038269,243.303711 
	C261.834167,232.547134 271.500061,222.030319 281.237244,211.579956 
	C284.064575,208.545517 286.889252,205.440384 290.120972,202.879837 
	C291.734131,201.601715 294.262451,201.478622 296.376801,200.833084 
	C295.883484,202.987595 296.073120,205.742966 294.789398,207.202072 
	C284.031342,219.430084 272.997070,231.414902 262.063141,243.488510 
	C260.727448,244.963409 259.493011,246.529984 258.033264,248.377548 
z"/>
</svg>